<?xml version="1.0" encoding="utf-8"?>
<!-- Generator: Adobe Illustrator 16.0.0, SVG Export Plug-In . SVG Version: 6.00 Build 0)  -->
<!DOCTYPE svg PUBLIC "-//W3C//DTD SVG 1.1//EN" "http://www.w3.org/Graphics/SVG/1.1/DTD/svg11.dtd">
<svg version="1.1" id="Layer_1" xmlns="http://www.w3.org/2000/svg" xmlns:xlink="http://www.w3.org/1999/xlink" x="0px" y="0px"
	 width="48px" height="48px" viewBox="0 0 48 48" enable-background="new 0 0 48 48" xml:space="preserve">
<g>
	<g>
		<path d="M36.6,46.7c-0.699,0-1.3-0.2-1.8-0.601L24.2,38.4L13.6,46.1c-1.1,0.801-2.6,0.801-3.7,0c-1.1-0.8-1.6-2.199-1.1-3.5
			l4-12.399L2.3,22.5c-1.1-0.8-1.6-2.2-1.1-3.5c0.4-1.3,1.6-2.2,3-2.2h13.1l4-12.4c0.4-1.3,1.6-2.2,3-2.2c1.4,0,2.601,0.9,3,2.2
			l4,12.4H44.4c1.399,0,2.6,0.9,3,2.2c0.399,1.3,0,2.7-1.101,3.5l-10.6,7.7l4,12.399c0.399,1.301,0,2.7-1.101,3.5
			C37.9,46.5,37.3,46.7,36.6,46.7z M24.2,36.2c0.2,0,0.399,0.1,0.6,0.2L36,44.5c0.4,0.3,1,0.3,1.4,0c0.399-0.3,0.6-0.8,0.399-1.3
			L33.5,30.1c-0.1-0.399,0-0.899,0.4-1.1L45,20.9c0.4-0.3,0.6-0.8,0.4-1.3c-0.2-0.5-0.601-0.8-1.101-0.8H30.5
			c-0.4,0-0.8-0.3-0.9-0.7L25.3,5c-0.2-0.5-0.6-0.8-1.1-0.8S23.3,4.5,23.1,5l-4.3,13.1c-0.1,0.4-0.5,0.7-0.9,0.7H4.1
			c-0.5,0-0.9,0.3-1.1,0.8s0,1,0.4,1.3L14.6,29c0.3,0.3,0.5,0.7,0.4,1.1L10.7,43.2c-0.2,0.5,0,1,0.4,1.3s1,0.3,1.4,0l11.2-8.1
			C23.8,36.3,24,36.2,24.2,36.2z"/>
	</g>
</g>
</svg>
