<svg id="Layer_1" data-name="Layer 1" class="heart" xmlns="http://www.w3.org/2000/svg" viewBox="0 0 100 100"><title>Artboard 6</title><path d="M50,90.5a2,2,0,0,1-1.39-.56L11,53.65a25.71,25.71,0,0,1,0-37.26,25,25,0,0,1,34.46,0L50,20.78l4.55-4.39a25,25,0,0,1,34.46,0h0a25.71,25.71,0,0,1,0,37.26L51.39,89.94A2,2,0,0,1,50,90.5Zm-21.78-77a20.73,20.73,0,0,0-14.45,5.77,21.71,21.71,0,0,0,0,31.5L50,85.72,86.23,50.77a21.71,21.71,0,0,0,0-31.5h0a21,21,0,0,0-28.91,0L51.39,25a2,2,0,0,1-2.78,0l-5.94-5.73A20.73,20.73,0,0,0,28.22,13.5Z"/></svg>