<svg id="Layer_1" data-name="Layer 1" xmlns="http://www.w3.org/2000/svg" viewBox="0 0 100 100"><title>Artboard 3</title><path d="M34.87,96a12.47,12.47,0,0,1-5.94-1.5l-9.39-5a12.3,12.3,0,0,1-6-7.39,12.14,12.14,0,0,1,1-9.38l15.1-27.4a12.59,12.59,0,0,1,16.94-4.94l6.15,3.3a2,2,0,0,1-1.9,3.52l-6.14-3.3a8.58,8.58,0,0,0-11.54,3.35L18,74.62a8.18,8.18,0,0,0-.69,6.31,8.35,8.35,0,0,0,4.09,5l9.39,5a8.58,8.58,0,0,0,11.54-3.35L54.69,65.26a2,2,0,0,1,3.51,1.93L45.87,89.56A12.56,12.56,0,0,1,34.87,96Z"/><path d="M57.37,61.15a12.47,12.47,0,0,1-5.94-1.5l-6.15-3.3a2,2,0,1,1,1.9-3.52l6.14,3.3a8.58,8.58,0,0,0,11.54-3.35L80,25.38a8.2,8.2,0,0,0,.69-6.32,8.36,8.36,0,0,0-4.09-5L67.18,9a8.57,8.57,0,0,0-11.54,3.36L43.31,34.74a2,2,0,0,1-3.51-1.93L52.13,10.44A12.59,12.59,0,0,1,69.07,5.5l9.39,5a12.34,12.34,0,0,1,6,7.39,12.14,12.14,0,0,1-1,9.38l-15.1,27.4A12.54,12.54,0,0,1,57.37,61.15Z"/></svg>